<svg xmlns="http://www.w3.org/2000/svg" xmlns:xlink="http://www.w3.org/1999/xlink" width="500" zoomAndPan="magnify" viewBox="0 0 375 374.999991" height="500" preserveAspectRatio="xMidYMid meet" version="1.0"><defs><g/></defs><g fill="#1e1e1e" fill-opacity="1"><g transform="translate(28.619948, 187.95012)"><g><path d="M 39.453125 -68.234375 L 39.453125 -64.46875 L 9.265625 -64.46875 L 9.265625 -36.765625 L 25.4375 -36.765625 L 25.4375 -51.421875 L 55.953125 -51.421875 L 55.953125 -54.765625 Z M 38.265625 -32.984375 L 9.265625 -32.984375 L 9.265625 -3.671875 L 25.4375 -3.671875 L 25.4375 -20.15625 L 54.546875 -20.15625 L 54.546875 -23.828125 L 38.265625 -36.765625 Z M 40.203125 0 L 5.828125 0 L 21.875 12.9375 L 56.375 12.9375 L 56.375 9.0625 L 40.203125 -3.671875 Z M 40.203125 0 "/></g></g></g><g fill="#1e1e1e" fill-opacity="1"><g transform="translate(82.945323, 187.95012)"><g><path d="M 8.296875 -36.96875 C 9.703125 -39.234375 10.234375 -39.890625 12.390625 -41.9375 L 8.296875 -45.171875 Z M 22.3125 -42.15625 C 16.8125 -42.15625 11.859375 -38.921875 8.296875 -33.3125 L 8.296875 0 L 4.84375 0 L 20.90625 12.9375 L 24.46875 12.9375 L 24.46875 -20.59375 C 26.953125 -24.46875 29.859375 -27.375 34.921875 -29 C 34.5 -35.25 33.09375 -37.625 29 -40.203125 C 26.953125 -41.5 24.25 -42.15625 22.3125 -42.15625 Z M 33.421875 -41.71875 C 35.6875 -39.671875 37.515625 -37.1875 38.046875 -33.3125 C 39.34375 -24.25 38.921875 -16.390625 38.921875 -12.71875 L 38.921875 0 L 35.25 0 L 51.3125 12.9375 L 55.078125 12.9375 L 55.078125 -11.109375 C 55.078125 -15.09375 55.40625 -24.359375 48.828125 -29.53125 Z M 33.421875 -41.71875 "/></g></g></g><g fill="#1e1e1e" fill-opacity="1"><g transform="translate(140.612154, 187.95012)"><g><path d="M 9.0625 -63.171875 C 10.34375 -61.875 10.890625 -61.125 10.890625 -59.5 C 10.890625 -56.921875 8.296875 -54.875 6.46875 -54.875 C 5.609375 -54.875 4.640625 -55.40625 3.34375 -56.15625 L 18.546875 -43.875 C 20.046875 -42.6875 20.59375 -42.046875 22.3125 -42.046875 C 24.578125 -42.046875 26.953125 -44.296875 26.953125 -46.78125 C 26.953125 -48.1875 26.515625 -49.265625 24.46875 -50.875 Z M 8.296875 0 L 4.75 0 L 20.703125 12.9375 L 24.46875 12.9375 L 24.46875 -32.453125 L 8.296875 -45.28125 Z M 8.296875 0 "/></g></g></g><g fill="#1e1e1e" fill-opacity="1"><g transform="translate(167.990277, 187.95012)"><g><path d="M 38.046875 -46.453125 L 38.046875 -43.21875 L 26.1875 -43.21875 C 31.796875 -39.234375 34.171875 -34.8125 34.171875 -29.53125 C 34.171875 -22.203125 29.640625 -15.515625 17.578125 -13.578125 C 9.375 -12.28125 7.4375 -10.671875 7.4375 -8.078125 C 7.4375 -0.21875 23.5 -6.25 32.765625 -0.4375 C 45.171875 -1.828125 50.453125 -10.03125 50.453125 -17.03125 C 50.453125 -22.09375 47.21875 -26.734375 42.46875 -30.296875 L 54.109375 -30.296875 L 54.109375 -33.625 Z M 17.46875 -42.90625 C 10.34375 -42.90625 4.421875 -36.96875 4.421875 -29.75 C 4.421875 -22.203125 10.78125 -16.8125 17.03125 -16.8125 C 18.21875 -16.8125 19.40625 -16.921875 20.59375 -17.25 C 21.015625 -23.28125 24.578125 -27.703125 30.5 -29.328125 C 30.40625 -37.1875 24.46875 -42.90625 17.46875 -42.90625 Z M 20.484375 0 C 6.796875 0 3.015625 4.84375 3.015625 8.84375 C 3.015625 12.5 5.71875 17.359375 18.328125 17.578125 C 20.484375 13.265625 25.65625 11.96875 31.6875 11.96875 L 32.984375 11.96875 C 33.84375 10.234375 34.0625 9.265625 34.0625 8.078125 C 34.0625 6.03125 33.421875 0 20.484375 0 Z M 50.125 13.6875 C 48.296875 12.1875 43.125 7.875 34.5 0.859375 C 36.328125 2.90625 37.40625 4.953125 37.40625 7.875 C 37.40625 15.515625 31.484375 20.90625 18.546875 20.90625 C 12.828125 20.90625 8.40625 20.265625 4.421875 17.140625 L 4.3125 17.140625 L 18.328125 28.25 C 22.953125 31.90625 28.5625 33.625 35.6875 33.625 C 45.703125 33.625 53.578125 28.671875 53.578125 21.125 C 53.578125 17.890625 52.390625 15.421875 50.125 13.6875 Z M 50.125 13.6875 "/></g></g></g><g fill="#1e1e1e" fill-opacity="1"><g transform="translate(216.710622, 187.95012)"><g><path d="M 7.984375 -36.859375 C 9.375 -39.015625 9.703125 -39.34375 11.96875 -41.609375 L 7.984375 -44.734375 Z M 60.046875 -42.359375 L 59.9375 -42.359375 C 65.75 -36.765625 66.296875 -31.484375 66.296875 -20.59375 L 66.296875 0 L 62.515625 0 L 78.265625 12.71875 L 82.46875 12.71875 L 82.46875 -11.203125 C 82.46875 -21.453125 79.984375 -26.84375 74.8125 -30.828125 Z M 31.15625 -42.359375 L 31.046875 -42.359375 C 33.953125 -39.890625 35.03125 -37.1875 36 -34.8125 C 36.21875 -35.578125 36.546875 -36.4375 36.96875 -37.1875 Z M 21.984375 -42.15625 C 16.8125 -42.15625 11.640625 -39.34375 7.984375 -32.453125 L 7.984375 0 L 4.203125 0 L 20.375 12.71875 L 24.140625 12.71875 L 24.140625 -19.515625 C 27.0625 -24.25 29.109375 -26.40625 33.3125 -28.34375 C 33.3125 -32.453125 32.234375 -35.578125 30.609375 -37.734375 C 28.140625 -40.96875 24.25 -42.15625 21.984375 -42.15625 Z M 50.671875 -42.15625 C 45.171875 -42.15625 40.859375 -38.8125 36.96875 -31.796875 L 36.96875 0 L 33.421875 0 L 49.375 12.71875 L 53.140625 12.71875 L 53.140625 -18.546875 C 55.296875 -23.28125 58.203125 -26.296875 62.421875 -28.140625 C 61.984375 -32.984375 60.578125 -36.4375 58.421875 -38.703125 C 56.265625 -40.96875 53.46875 -42.15625 50.671875 -42.15625 Z M 50.671875 -42.15625 "/></g></g></g><g fill="#1e1e1e" fill-opacity="1"><g transform="translate(301.324718, 187.95012)"><g><path d="M 16.5 -42.46875 C 11.640625 -42.46875 7.4375 -40.859375 2.796875 -37.296875 L 16.0625 -26.625 C 18.96875 -29.21875 22.3125 -30.71875 26.1875 -31.6875 L 26.1875 -32.234375 C 26.1875 -40.75 21.671875 -42.46875 16.5 -42.46875 Z M 26.1875 -42.46875 C 29.640625 -39.125 29.859375 -36.109375 29.859375 -29.640625 L 29.859375 -8.296875 C 29.859375 -5.390625 29.859375 -2.796875 31.484375 -2.796875 C 32.765625 -2.796875 35.03125 -4.09375 37.296875 -5.921875 L 37.296875 -3.125 C 33.953125 -0.53125 31.15625 1.078125 29.109375 1.078125 C 27.484375 1.078125 26.296875 -1.078125 26.1875 -4.640625 C 21.5625 -0.859375 17.03125 1.078125 12.609375 1.078125 C 10.34375 1.078125 7.65625 0.109375 4.953125 -1.078125 L 19.734375 10.78125 C 22.75 13.15625 25.546875 14.015625 28.25 14.015625 C 31.578125 14.015625 34.609375 13.15625 40.09375 10.140625 C 41.71875 11.53125 44.625 13.6875 46.25 13.6875 C 48.1875 13.6875 50.453125 11.96875 53.46875 10.140625 L 53.46875 7 L 46.03125 0.96875 L 46.03125 -18.75 C 46.03125 -26.296875 45.28125 -27.171875 41.171875 -30.5 Z M 26.1875 -23.9375 C 12.078125 -23.609375 3.765625 -18.96875 3.765625 -10.671875 C 3.765625 -5.390625 8.078125 -2.265625 13.359375 -2.265625 C 14.65625 -2.265625 16.0625 -2.59375 17.46875 -3.015625 C 18.859375 -6.6875 21.125 -8.953125 26.1875 -11.109375 Z M 26.1875 -23.9375 "/></g></g></g><g fill="#1e1e1e" fill-opacity="1"><g transform="translate(160.093735, 244.020248)"><g><path d="M 2.609375 -8.9375 C 2.328125 -8.9375 2.078125 -8.828125 1.859375 -8.609375 C 1.648438 -8.398438 1.546875 -8.148438 1.546875 -7.859375 C 1.546875 -7.628906 1.601562 -7.398438 1.71875 -7.171875 C 1.832031 -6.941406 2.015625 -6.6875 2.265625 -6.40625 L 3.515625 -4.9375 C 3.878906 -4.519531 4.15625 -4.160156 4.34375 -3.859375 C 4.539062 -3.554688 4.675781 -3.265625 4.75 -2.984375 C 4.832031 -2.710938 4.875 -2.410156 4.875 -2.078125 C 4.875 -1.671875 4.769531 -1.300781 4.5625 -0.96875 C 4.351562 -0.632812 4.078125 -0.367188 3.734375 -0.171875 C 3.390625 0.0234375 3.003906 0.125 2.578125 0.125 C 2.273438 0.125 2.023438 0.09375 1.828125 0.03125 C 1.640625 -0.0195312 1.488281 -0.0703125 1.375 -0.125 C 1.269531 -0.1875 1.175781 -0.21875 1.09375 -0.21875 C 1.007812 -0.21875 0.929688 -0.195312 0.859375 -0.15625 C 0.785156 -0.113281 0.738281 -0.0625 0.71875 0 L 0.28125 0 L 0.28125 -2.625 L 0.703125 -2.625 C 0.816406 -1.96875 1.023438 -1.453125 1.328125 -1.078125 C 1.628906 -0.703125 1.976562 -0.515625 2.375 -0.515625 C 2.71875 -0.515625 2.988281 -0.628906 3.1875 -0.859375 C 3.394531 -1.085938 3.5 -1.398438 3.5 -1.796875 C 3.5 -2.117188 3.421875 -2.441406 3.265625 -2.765625 C 3.109375 -3.097656 2.851562 -3.460938 2.5 -3.859375 L 1.46875 -5.0625 C 1.03125 -5.5625 0.722656 -5.988281 0.546875 -6.34375 C 0.378906 -6.695312 0.296875 -7.070312 0.296875 -7.46875 C 0.296875 -7.8125 0.398438 -8.132812 0.609375 -8.4375 C 0.816406 -8.738281 1.085938 -8.976562 1.421875 -9.15625 C 1.753906 -9.332031 2.113281 -9.421875 2.5 -9.421875 C 2.8125 -9.421875 3.03125 -9.445312 3.15625 -9.5 C 3.289062 -9.550781 3.394531 -9.644531 3.46875 -9.78125 L 3.890625 -9.78125 L 4.421875 -7.53125 L 4 -7.421875 C 3.84375 -7.835938 3.695312 -8.148438 3.5625 -8.359375 C 3.4375 -8.578125 3.300781 -8.726562 3.15625 -8.8125 C 3.007812 -8.894531 2.828125 -8.9375 2.609375 -8.9375 Z M 2.609375 -8.9375 "/></g></g></g><g fill="#1e1e1e" fill-opacity="1"><g transform="translate(165.263877, 244.020248)"><g><path d="M 0.296875 -0.453125 C 0.554688 -0.453125 0.742188 -0.492188 0.859375 -0.578125 C 0.984375 -0.660156 1.046875 -0.800781 1.046875 -1 L 1.046875 -5.703125 C 1.046875 -5.898438 0.984375 -6.035156 0.859375 -6.109375 C 0.742188 -6.191406 0.554688 -6.234375 0.296875 -6.234375 L 0.296875 -6.703125 L 3.15625 -6.703125 L 3.15625 -6.234375 C 2.882812 -6.234375 2.691406 -6.191406 2.578125 -6.109375 C 2.460938 -6.035156 2.40625 -5.898438 2.40625 -5.703125 L 2.40625 -1 C 2.40625 -0.800781 2.460938 -0.660156 2.578125 -0.578125 C 2.691406 -0.492188 2.882812 -0.453125 3.15625 -0.453125 L 3.15625 0 L 0.296875 0 Z M 0.296875 -0.453125 "/></g></g></g><g fill="#1e1e1e" fill-opacity="1"><g transform="translate(168.710643, 244.020248)"><g><path d="M 1.046875 -1 L 1.046875 -5.703125 C 1.046875 -5.898438 0.984375 -6.035156 0.859375 -6.109375 C 0.742188 -6.191406 0.554688 -6.234375 0.296875 -6.234375 L 0.296875 -6.703125 L 2.5 -6.703125 L 4 -2.15625 L 5.265625 -6.703125 L 7.53125 -6.703125 L 7.53125 -6.28125 C 7.25 -6.28125 7.050781 -6.238281 6.9375 -6.15625 C 6.832031 -6.082031 6.78125 -5.945312 6.78125 -5.75 L 6.78125 -1 C 6.78125 -0.789062 6.832031 -0.644531 6.9375 -0.5625 C 7.050781 -0.488281 7.25 -0.453125 7.53125 -0.453125 L 7.53125 0 L 4.78125 0 L 4.78125 -0.453125 C 5.0625 -0.453125 5.253906 -0.488281 5.359375 -0.5625 C 5.460938 -0.644531 5.515625 -0.789062 5.515625 -1 L 5.515625 -5.671875 L 3.953125 0 L 3.453125 0 L 1.59375 -5.6875 L 1.59375 -1 C 1.59375 -0.789062 1.644531 -0.644531 1.75 -0.5625 C 1.851562 -0.488281 2.046875 -0.453125 2.328125 -0.453125 L 2.328125 0 L 0.296875 0 L 0.296875 -0.453125 C 0.578125 -0.453125 0.769531 -0.488281 0.875 -0.5625 C 0.988281 -0.644531 1.046875 -0.789062 1.046875 -1 Z M 1.046875 -1 "/></g></g></g><g fill="#1e1e1e" fill-opacity="1"><g transform="translate(176.534041, 244.020248)"><g><path d="M 5.203125 -2.53125 C 5.203125 -0.757812 4.515625 0.125 3.140625 0.125 C 2.429688 0.125 1.867188 -0.109375 1.453125 -0.578125 C 1.046875 -1.054688 0.84375 -1.707031 0.84375 -2.53125 L 0.84375 -5.703125 C 0.84375 -5.898438 0.785156 -6.035156 0.671875 -6.109375 C 0.554688 -6.191406 0.363281 -6.234375 0.09375 -6.234375 L 0.09375 -6.703125 L 2.953125 -6.703125 L 2.953125 -6.234375 C 2.691406 -6.234375 2.5 -6.191406 2.375 -6.109375 C 2.257812 -6.035156 2.203125 -5.898438 2.203125 -5.703125 L 2.203125 -1.6875 C 2.203125 -1.300781 2.3125 -0.988281 2.53125 -0.75 C 2.75 -0.507812 3.039062 -0.390625 3.40625 -0.390625 C 3.78125 -0.390625 4.082031 -0.570312 4.3125 -0.9375 C 4.550781 -1.300781 4.671875 -1.769531 4.671875 -2.34375 L 4.671875 -5.703125 C 4.671875 -5.898438 4.617188 -6.035156 4.515625 -6.109375 C 4.410156 -6.191406 4.21875 -6.234375 3.9375 -6.234375 L 3.9375 -6.703125 L 5.953125 -6.703125 L 5.953125 -6.234375 C 5.671875 -6.234375 5.472656 -6.191406 5.359375 -6.109375 C 5.253906 -6.035156 5.203125 -5.898438 5.203125 -5.703125 Z M 5.203125 -2.53125 "/></g></g></g><g fill="#1e1e1e" fill-opacity="1"><g transform="translate(182.584475, 244.020248)"><g><path d="M 0.296875 -0.453125 C 0.554688 -0.453125 0.742188 -0.492188 0.859375 -0.578125 C 0.984375 -0.660156 1.046875 -0.800781 1.046875 -1 L 1.046875 -5.703125 C 1.046875 -5.898438 0.984375 -6.035156 0.859375 -6.109375 C 0.742188 -6.191406 0.554688 -6.234375 0.296875 -6.234375 L 0.296875 -6.703125 L 3.15625 -6.703125 L 3.15625 -6.234375 C 2.882812 -6.234375 2.691406 -6.191406 2.578125 -6.109375 C 2.460938 -6.035156 2.40625 -5.898438 2.40625 -5.703125 L 2.40625 -0.484375 L 3.1875 -0.484375 C 3.5625 -0.484375 3.847656 -0.523438 4.046875 -0.609375 C 4.242188 -0.703125 4.390625 -0.867188 4.484375 -1.109375 C 4.585938 -1.347656 4.664062 -1.691406 4.71875 -2.140625 L 5.125 -2.140625 L 5.125 0.265625 L 4.703125 0.265625 C 4.671875 0.160156 4.59375 0.0859375 4.46875 0.046875 C 4.34375 0.015625 4.132812 0 3.84375 0 L 0.296875 0 Z M 0.296875 -0.453125 "/></g></g></g><g fill="#1e1e1e" fill-opacity="1"><g transform="translate(187.903402, 244.020248)"><g><path d="M 1.234375 -1 C 1.171875 -0.832031 1.207031 -0.695312 1.34375 -0.59375 C 1.476562 -0.5 1.6875 -0.453125 1.96875 -0.453125 L 1.96875 0 L -0.09375 0 L -0.09375 -0.453125 C 0.125 -0.453125 0.289062 -0.492188 0.40625 -0.578125 C 0.519531 -0.660156 0.609375 -0.800781 0.671875 -1 L 2.53125 -6.75 L 3.125 -6.75 L 5.0625 -0.984375 C 5.132812 -0.765625 5.21875 -0.617188 5.3125 -0.546875 C 5.40625 -0.484375 5.578125 -0.453125 5.828125 -0.453125 L 5.828125 0 L 2.984375 0 L 2.984375 -0.453125 C 3.585938 -0.453125 3.835938 -0.625 3.734375 -0.96875 L 3.46875 -1.796875 L 1.484375 -1.796875 Z M 1.65625 -2.265625 L 3.328125 -2.265625 L 2.5 -4.875 Z M 1.65625 -2.265625 "/></g></g></g><g fill="#1e1e1e" fill-opacity="1"><g transform="translate(193.631467, 244.020248)"><g><path d="M 1.296875 -0.453125 C 1.554688 -0.453125 1.742188 -0.492188 1.859375 -0.578125 C 1.972656 -0.660156 2.03125 -0.800781 2.03125 -1 L 2.03125 -6.21875 L 1.828125 -6.21875 C 1.554688 -6.21875 1.34375 -6.175781 1.1875 -6.09375 C 1.03125 -6.007812 0.894531 -5.847656 0.78125 -5.609375 C 0.675781 -5.367188 0.554688 -5.007812 0.421875 -4.53125 L 0 -4.640625 L 0.421875 -7.015625 L 0.8125 -7.015625 C 0.832031 -6.804688 1.019531 -6.703125 1.375 -6.703125 L 4.078125 -6.703125 C 4.429688 -6.703125 4.625 -6.804688 4.65625 -7.015625 L 5.03125 -7.015625 L 5.453125 -4.640625 L 5.03125 -4.53125 C 4.90625 -5.007812 4.785156 -5.367188 4.671875 -5.609375 C 4.554688 -5.847656 4.421875 -6.007812 4.265625 -6.09375 C 4.109375 -6.175781 3.898438 -6.21875 3.640625 -6.21875 L 3.40625 -6.21875 L 3.40625 -1 C 3.40625 -0.800781 3.460938 -0.660156 3.578125 -0.578125 C 3.691406 -0.492188 3.878906 -0.453125 4.140625 -0.453125 L 4.140625 0 L 1.296875 0 Z M 1.296875 -0.453125 "/></g></g></g><g fill="#1e1e1e" fill-opacity="1"><g transform="translate(199.086774, 244.020248)"><g><path d="M 0.296875 -0.453125 C 0.554688 -0.453125 0.742188 -0.492188 0.859375 -0.578125 C 0.984375 -0.660156 1.046875 -0.800781 1.046875 -1 L 1.046875 -5.703125 C 1.046875 -5.898438 0.984375 -6.035156 0.859375 -6.109375 C 0.742188 -6.191406 0.554688 -6.234375 0.296875 -6.234375 L 0.296875 -6.703125 L 3.15625 -6.703125 L 3.15625 -6.234375 C 2.882812 -6.234375 2.691406 -6.191406 2.578125 -6.109375 C 2.460938 -6.035156 2.40625 -5.898438 2.40625 -5.703125 L 2.40625 -1 C 2.40625 -0.800781 2.460938 -0.660156 2.578125 -0.578125 C 2.691406 -0.492188 2.882812 -0.453125 3.15625 -0.453125 L 3.15625 0 L 0.296875 0 Z M 0.296875 -0.453125 "/></g></g></g><g fill="#1e1e1e" fill-opacity="1"><g transform="translate(202.53354, 244.020248)"><g><path d="M 2.90625 -6.890625 C 3.664062 -6.890625 4.25 -6.65625 4.65625 -6.1875 C 5.070312 -5.726562 5.28125 -5.078125 5.28125 -4.234375 L 5.28125 -2.46875 C 5.28125 -0.695312 4.488281 0.1875 2.90625 0.1875 C 2.125 0.1875 1.523438 -0.0351562 1.109375 -0.484375 C 0.703125 -0.941406 0.5 -1.601562 0.5 -2.46875 L 0.5 -4.234375 C 0.5 -5.109375 0.703125 -5.769531 1.109375 -6.21875 C 1.515625 -6.664062 2.113281 -6.890625 2.90625 -6.890625 Z M 2.90625 -0.296875 C 3.195312 -0.296875 3.4375 -0.40625 3.625 -0.625 C 3.820312 -0.84375 3.921875 -1.125 3.921875 -1.46875 L 3.921875 -5.203125 C 3.921875 -5.554688 3.820312 -5.84375 3.625 -6.0625 C 3.4375 -6.289062 3.195312 -6.40625 2.90625 -6.40625 C 2.613281 -6.40625 2.367188 -6.289062 2.171875 -6.0625 C 1.984375 -5.832031 1.890625 -5.546875 1.890625 -5.203125 L 1.890625 -1.46875 C 1.890625 -1.113281 1.976562 -0.828125 2.15625 -0.609375 C 2.34375 -0.398438 2.59375 -0.296875 2.90625 -0.296875 Z M 2.90625 -0.296875 "/></g></g></g><g fill="#1e1e1e" fill-opacity="1"><g transform="translate(208.311204, 244.020248)"><g><path d="M 1.046875 -1 L 1.046875 -5.703125 C 1.046875 -5.898438 0.984375 -6.035156 0.859375 -6.109375 C 0.742188 -6.191406 0.554688 -6.234375 0.296875 -6.234375 L 0.296875 -6.703125 L 2.375 -6.703125 L 5.046875 -2.40625 L 5.046875 -5.703125 C 5.046875 -5.898438 4.992188 -6.035156 4.890625 -6.109375 C 4.785156 -6.191406 4.59375 -6.234375 4.3125 -6.234375 L 4.3125 -6.703125 L 6.34375 -6.703125 L 6.34375 -6.234375 C 6.0625 -6.234375 5.863281 -6.191406 5.75 -6.109375 C 5.644531 -6.035156 5.59375 -5.898438 5.59375 -5.703125 L 5.59375 0 L 5.03125 0 L 1.59375 -5.578125 L 1.59375 -1 C 1.59375 -0.789062 1.644531 -0.644531 1.75 -0.5625 C 1.851562 -0.488281 2.046875 -0.453125 2.328125 -0.453125 L 2.328125 0 L 0.296875 0 L 0.296875 -0.453125 C 0.578125 -0.453125 0.769531 -0.488281 0.875 -0.5625 C 0.988281 -0.644531 1.046875 -0.789062 1.046875 -1 Z M 1.046875 -1 "/></g></g></g></svg>