<svg xmlns="http://www.w3.org/2000/svg" xmlns:xlink="http://www.w3.org/1999/xlink" width="500" zoomAndPan="magnify" viewBox="0 0 375 374.999991" height="500" preserveAspectRatio="xMidYMid meet" version="1.0"><defs><g/></defs><g fill="#e4e2dd" fill-opacity="1"><g transform="translate(15.399006, 190.099968)"><g><path d="M 18.09375 -61.46875 C 11 -61.46875 6.0625 -55.921875 6.0625 -49.546875 C 6.0625 -43.171875 10.6875 -38.546875 20.25 -33.609375 L 22.609375 -32.375 C 21.796875 -34.328125 21.6875 -35.265625 21.6875 -37.21875 C 21.6875 -43.890625 26.625 -49.140625 33.609375 -49.140625 C 38.234375 -49.140625 43.28125 -47.390625 47.796875 -43.6875 L 47.796875 -48.421875 L 32.171875 -60.75 L 32.171875 -56.4375 C 26.734375 -59.828125 22.609375 -61.46875 18.09375 -61.46875 Z M 21.59375 -24.984375 C 24.984375 -21.796875 28.375 -19.421875 31.765625 -17.984375 C 29.8125 -24.46875 27.03125 -26.515625 16.546875 -31.765625 C 14.59375 -32.6875 12.03125 -34.4375 9.046875 -36.90625 L 8.9375 -36.90625 Z M 34.234375 13.359375 C 43.578125 13.359375 50.890625 4.9375 50.890625 -3.078125 C 50.890625 -8.53125 49.140625 -12.546875 42.453125 -17.78125 L 30.125 -27.546875 L 30.015625 -27.546875 C 33.8125 -23.546875 35.265625 -20.359375 35.265625 -15.9375 C 35.265625 -7.09375 28.578125 1.03125 18.8125 1.03125 C 14.1875 1.03125 10.375 -0.3125 2.875 -4.9375 L 2.78125 -4.9375 L 17.171875 6.578125 C 22.515625 10.890625 28.578125 13.265625 34.234375 13.359375 Z M 1.234375 -10.796875 C 6.890625 -5.75 9.65625 -4.421875 16.140625 -2.671875 Z M 1.234375 -10.796875 "/></g></g></g><g fill="#e4e2dd" fill-opacity="1"><g transform="translate(64.015816, 190.099968)"><g><path d="M 7.921875 -35.265625 C 11.109375 -40.703125 15.421875 -43.796875 21.078125 -43.796875 C 21.796875 -43.796875 22.515625 -43.796875 23.328125 -43.6875 L 23.328125 -53.140625 L 7.921875 -65.375 Z M 21.078125 -40.1875 C 15.828125 -40.1875 11.203125 -36.90625 7.921875 -31.765625 L 7.921875 0 L 4.625 0 L 19.9375 12.328125 L 23.328125 12.328125 L 23.328125 -19.640625 C 25.796875 -23.328125 28.6875 -26.21875 33.3125 -27.65625 L 33.3125 -28.171875 C 33.3125 -36.59375 26.21875 -40.1875 21.078125 -40.1875 Z M 31.96875 -39.578125 C 36.90625 -35.5625 37.109375 -27.953125 37.109375 -20.5625 L 37.109375 0 L 33.609375 0 L 48.9375 12.328125 L 52.53125 12.328125 L 52.53125 -12.125 C 52.53125 -16.75 52.21875 -23.84375 45.953125 -28.6875 Z M 31.96875 -39.578125 "/></g></g></g><g fill="#e4e2dd" fill-opacity="1"><g transform="translate(119.005303, 190.099968)"><g><path d="M 21.6875 -40.1875 C 11.109375 -40.1875 2.984375 -31.359375 2.984375 -21.375 C 2.984375 -12.234375 9.65625 -4.015625 19.9375 -2.875 C 19.21875 -5.34375 19.125 -6.46875 19.125 -8.421875 C 19.125 -18.609375 27.34375 -27.34375 37.625 -27.34375 C 38.140625 -27.34375 38.859375 -27.34375 39.578125 -27.234375 C 36.703125 -35.46875 29.609375 -40.1875 21.6875 -40.1875 Z M 36.28125 -38.453125 C 41.53125 -33.609375 44.09375 -28.171875 44.09375 -21.59375 C 44.09375 -9.046875 33.8125 0.921875 21.890625 0.921875 C 17.0625 0.921875 12.546875 -0.609375 8.328125 -3.5 L 24.5625 9.359375 C 27.34375 11.515625 33.203125 13.78125 37.828125 13.78125 C 50.375 13.78125 60.234375 3.59375 60.234375 -8.640625 C 60.234375 -15.625 57.15625 -21.890625 51.703125 -26.21875 Z M 36.28125 -38.453125 "/></g></g></g><g fill="#e4e2dd" fill-opacity="1"><g transform="translate(177.283914, 190.099968)"><g><path d="M 8.125 -65.078125 L 8.125 -36.703125 C 12.640625 -40.609375 16.140625 -43.375 23.546875 -43.6875 L 23.546875 -52.625 Z M 23.125 -40.5 C 17.890625 -40.5 12.328125 -37.71875 8.125 -32.796875 L 8.125 -6.0625 C 11 -3.90625 14.28125 -2.78125 19.125 -2.78125 C 20.875 -2.78125 22.203125 -2.875 23.546875 -3.1875 L 23.546875 -20.453125 C 27.34375 -25.28125 32.484375 -27.65625 37.9375 -28.265625 C 35.46875 -36.1875 28.78125 -40.5 23.125 -40.5 Z M 34.84375 -39.78125 C 40.5 -34.640625 42.359375 -28.265625 42.359375 -22.09375 C 42.359375 -9.25 33 0.921875 19.328125 0.921875 C 14.28125 0.921875 9.65625 0 4.625 -1.953125 L 19.53125 10.171875 C 26.421875 12.328125 30.328125 13.0625 34.328125 13.0625 C 48.109375 13.0625 57.765625 3.59375 57.765625 -10.078125 C 57.765625 -17.46875 54.890625 -24.046875 49.75 -28.0625 Z M 34.84375 -39.78125 "/></g></g></g><g fill="#e4e2dd" fill-opacity="1"><g transform="translate(233.404042, 190.099968)"><g><path d="M 7.921875 -35.265625 C 11.109375 -40.703125 15.421875 -43.796875 21.078125 -43.796875 C 21.796875 -43.796875 22.515625 -43.796875 23.328125 -43.6875 L 23.328125 -53.140625 L 7.921875 -65.375 Z M 21.078125 -40.1875 C 15.828125 -40.1875 11.203125 -36.90625 7.921875 -31.765625 L 7.921875 0 L 4.625 0 L 19.9375 12.328125 L 23.328125 12.328125 L 23.328125 -19.640625 C 25.796875 -23.328125 28.6875 -26.21875 33.3125 -27.65625 L 33.3125 -28.171875 C 33.3125 -36.59375 26.21875 -40.1875 21.078125 -40.1875 Z M 31.96875 -39.578125 C 36.90625 -35.5625 37.109375 -27.953125 37.109375 -20.5625 L 37.109375 0 L 33.609375 0 L 48.9375 12.328125 L 52.53125 12.328125 L 52.53125 -12.125 C 52.53125 -16.75 52.21875 -23.84375 45.953125 -28.6875 Z M 31.96875 -39.578125 "/></g></g></g><g fill="#e4e2dd" fill-opacity="1"><g transform="translate(288.393541, 190.099968)"><g><path d="M 8.640625 -60.234375 C 9.875 -59 10.375 -58.28125 10.375 -56.75 C 10.375 -54.28125 7.921875 -52.328125 6.171875 -52.328125 C 5.34375 -52.328125 4.421875 -52.84375 3.1875 -53.5625 L 17.6875 -41.84375 C 19.125 -40.703125 19.640625 -40.09375 21.28125 -40.09375 C 23.4375 -40.09375 25.703125 -42.25 25.703125 -44.609375 C 25.703125 -45.953125 25.28125 -46.984375 23.328125 -48.515625 Z M 7.921875 0 L 4.515625 0 L 19.734375 12.328125 L 23.328125 12.328125 L 23.328125 -30.9375 L 7.921875 -43.171875 Z M 7.921875 0 "/></g></g></g><g fill="#e4e2dd" fill-opacity="1"><g transform="translate(314.500419, 190.099968)"><g><path d="M 14.078125 -57.265625 L 14.078125 -42.359375 L 25.796875 -42.359375 L 25.796875 -39.375 L 14.078125 -39.375 L 14.078125 -11.109375 C 14.078125 -4.109375 16.75 -2.671875 21.59375 -2.671875 C 23.640625 -2.671875 25.078125 -2.875 29.09375 -4.421875 L 29.09375 -1.234375 C 24.875 0.515625 22.921875 0.71875 20.65625 0.71875 C 17.6875 0.71875 15.734375 0 13.671875 -1.640625 L 27.859375 9.96875 C 30.328125 12.03125 32.890625 13.359375 35.46875 13.359375 C 38.234375 13.359375 41.53125 12.546875 44.8125 11.40625 L 44.8125 7.609375 L 29.5 -4.421875 L 29.5 -27.03125 L 41.421875 -27.03125 L 41.421875 -30.125 L 29.5 -39.375 L 29.5 -44.921875 Z M -0.921875 -39.375 L 10.28125 -30.640625 L 10.28125 -39.375 Z M -0.921875 -39.375 "/></g></g></g><g fill="#e4e2dd" fill-opacity="1"><g transform="translate(145.304673, 244.020219)"><g><path d="M 2.984375 -9.421875 C 3.304688 -9.421875 3.53125 -9.445312 3.65625 -9.5 C 3.789062 -9.550781 3.890625 -9.644531 3.953125 -9.78125 L 4.375 -9.78125 L 4.921875 -7.53125 L 4.5 -7.421875 C 4.34375 -7.835938 4.195312 -8.148438 4.0625 -8.359375 C 3.9375 -8.578125 3.800781 -8.726562 3.65625 -8.8125 C 3.507812 -8.894531 3.328125 -8.9375 3.109375 -8.9375 C 2.773438 -8.9375 2.492188 -8.804688 2.265625 -8.546875 C 2.035156 -8.296875 1.921875 -7.988281 1.921875 -7.625 L 1.921875 -1.6875 C 1.921875 -1.332031 2.023438 -1.035156 2.234375 -0.796875 C 2.453125 -0.566406 2.722656 -0.453125 3.046875 -0.453125 C 3.429688 -0.453125 3.742188 -0.625 3.984375 -0.96875 C 4.222656 -1.3125 4.34375 -1.769531 4.34375 -2.34375 L 4.34375 -2.546875 L 4.875 -2.546875 L 4.875 -2.53125 C 4.875 -1.625 4.707031 -0.953125 4.375 -0.515625 C 4.039062 -0.0859375 3.523438 0.125 2.828125 0.125 C 2.109375 0.125 1.546875 -0.109375 1.140625 -0.578125 C 0.734375 -1.054688 0.53125 -1.707031 0.53125 -2.53125 L 0.53125 -6.78125 C 0.53125 -7.644531 0.738281 -8.300781 1.15625 -8.75 C 1.570312 -9.195312 2.179688 -9.421875 2.984375 -9.421875 Z M 2.984375 -9.421875 "/></g></g></g><g fill="#e4e2dd" fill-opacity="1"><g transform="translate(150.586396, 244.020219)"><g><path d="M 0.296875 -0.453125 C 0.554688 -0.453125 0.742188 -0.492188 0.859375 -0.578125 C 0.984375 -0.660156 1.046875 -0.800781 1.046875 -1 L 1.046875 -5.703125 C 1.046875 -5.898438 0.984375 -6.035156 0.859375 -6.109375 C 0.742188 -6.191406 0.554688 -6.234375 0.296875 -6.234375 L 0.296875 -6.703125 L 3.21875 -6.703125 C 3.976562 -6.703125 4.535156 -6.523438 4.890625 -6.171875 C 5.253906 -5.828125 5.4375 -5.285156 5.4375 -4.546875 C 5.4375 -4.191406 5.34375 -3.882812 5.15625 -3.625 C 4.976562 -3.363281 4.691406 -3.132812 4.296875 -2.9375 C 4.984375 -2.644531 5.328125 -2.128906 5.328125 -1.390625 C 5.328125 -1.128906 5.378906 -0.90625 5.484375 -0.71875 C 5.585938 -0.539062 5.71875 -0.453125 5.875 -0.453125 L 5.9375 -0.453125 L 5.9375 0 L 5.828125 0 C 5.222656 0 4.773438 -0.109375 4.484375 -0.328125 C 4.203125 -0.554688 4.0625 -0.910156 4.0625 -1.390625 C 4.0625 -1.742188 3.96875 -2.050781 3.78125 -2.3125 C 3.601562 -2.570312 3.394531 -2.703125 3.15625 -2.703125 L 2.90625 -2.703125 L 2.90625 -3.15625 L 3.21875 -3.15625 C 3.5 -3.15625 3.71875 -3.265625 3.875 -3.484375 C 4.039062 -3.710938 4.125 -4.007812 4.125 -4.375 L 4.125 -5.015625 C 4.125 -5.378906 4.039062 -5.671875 3.875 -5.890625 C 3.71875 -6.109375 3.5 -6.21875 3.21875 -6.21875 L 2.40625 -6.21875 L 2.40625 -1 C 2.40625 -0.800781 2.460938 -0.660156 2.578125 -0.578125 C 2.691406 -0.492188 2.882812 -0.453125 3.15625 -0.453125 L 3.15625 0 L 0.296875 0 Z M 0.296875 -0.453125 "/></g></g></g><g fill="#e4e2dd" fill-opacity="1"><g transform="translate(156.587231, 244.020219)"><g><path d="M 0.296875 -0.453125 C 0.554688 -0.453125 0.742188 -0.492188 0.859375 -0.578125 C 0.984375 -0.660156 1.046875 -0.800781 1.046875 -1 L 1.046875 -5.703125 C 1.046875 -5.898438 0.984375 -6.035156 0.859375 -6.109375 C 0.742188 -6.191406 0.554688 -6.234375 0.296875 -6.234375 L 0.296875 -6.703125 L 3.96875 -6.703125 C 4.1875 -6.703125 4.335938 -6.71875 4.421875 -6.75 C 4.515625 -6.789062 4.566406 -6.851562 4.578125 -6.9375 L 4.984375 -6.9375 L 5.5 -4.921875 L 5.09375 -4.8125 C 4.9375 -5.207031 4.789062 -5.503906 4.65625 -5.703125 C 4.519531 -5.910156 4.347656 -6.046875 4.140625 -6.109375 C 3.929688 -6.179688 3.644531 -6.21875 3.28125 -6.21875 L 2.390625 -6.21875 L 2.390625 -3.546875 L 3.28125 -3.546875 C 3.601562 -3.546875 3.765625 -3.757812 3.765625 -4.1875 L 4.171875 -4.1875 L 4.171875 -2.3125 L 3.765625 -2.3125 C 3.765625 -2.8125 3.601562 -3.0625 3.28125 -3.0625 L 2.390625 -3.0625 L 2.390625 -0.484375 L 3.6875 -0.484375 C 4.0625 -0.484375 4.347656 -0.523438 4.546875 -0.609375 C 4.742188 -0.691406 4.890625 -0.847656 4.984375 -1.078125 C 5.085938 -1.316406 5.160156 -1.664062 5.203125 -2.125 L 5.625 -2.125 L 5.625 0.265625 L 5.203125 0.265625 C 5.171875 0.160156 5.09375 0.0859375 4.96875 0.046875 C 4.84375 0.015625 4.632812 0 4.34375 0 L 0.296875 0 Z M 0.296875 -0.453125 "/></g></g></g><g fill="#e4e2dd" fill-opacity="1"><g transform="translate(162.402088, 244.020219)"><g><path d="M 1.234375 -1 C 1.171875 -0.832031 1.207031 -0.695312 1.34375 -0.59375 C 1.476562 -0.5 1.6875 -0.453125 1.96875 -0.453125 L 1.96875 0 L -0.09375 0 L -0.09375 -0.453125 C 0.125 -0.453125 0.289062 -0.492188 0.40625 -0.578125 C 0.519531 -0.660156 0.609375 -0.800781 0.671875 -1 L 2.53125 -6.75 L 3.125 -6.75 L 5.0625 -0.984375 C 5.132812 -0.765625 5.21875 -0.617188 5.3125 -0.546875 C 5.40625 -0.484375 5.578125 -0.453125 5.828125 -0.453125 L 5.828125 0 L 2.984375 0 L 2.984375 -0.453125 C 3.585938 -0.453125 3.835938 -0.625 3.734375 -0.96875 L 3.46875 -1.796875 L 1.484375 -1.796875 Z M 1.65625 -2.265625 L 3.328125 -2.265625 L 2.5 -4.875 Z M 1.65625 -2.265625 "/></g></g></g><g fill="#e4e2dd" fill-opacity="1"><g transform="translate(168.130153, 244.020219)"><g><path d="M 1.296875 -0.453125 C 1.554688 -0.453125 1.742188 -0.492188 1.859375 -0.578125 C 1.972656 -0.660156 2.03125 -0.800781 2.03125 -1 L 2.03125 -6.21875 L 1.828125 -6.21875 C 1.554688 -6.21875 1.34375 -6.175781 1.1875 -6.09375 C 1.03125 -6.007812 0.894531 -5.847656 0.78125 -5.609375 C 0.675781 -5.367188 0.554688 -5.007812 0.421875 -4.53125 L 0 -4.640625 L 0.421875 -7.015625 L 0.8125 -7.015625 C 0.832031 -6.804688 1.019531 -6.703125 1.375 -6.703125 L 4.078125 -6.703125 C 4.429688 -6.703125 4.625 -6.804688 4.65625 -7.015625 L 5.03125 -7.015625 L 5.453125 -4.640625 L 5.03125 -4.53125 C 4.90625 -5.007812 4.785156 -5.367188 4.671875 -5.609375 C 4.554688 -5.847656 4.421875 -6.007812 4.265625 -6.09375 C 4.109375 -6.175781 3.898438 -6.21875 3.640625 -6.21875 L 3.40625 -6.21875 L 3.40625 -1 C 3.40625 -0.800781 3.460938 -0.660156 3.578125 -0.578125 C 3.691406 -0.492188 3.878906 -0.453125 4.140625 -0.453125 L 4.140625 0 L 1.296875 0 Z M 1.296875 -0.453125 "/></g></g></g><g fill="#e4e2dd" fill-opacity="1"><g transform="translate(173.58546, 244.020219)"><g><path d="M 0.296875 -0.453125 C 0.554688 -0.453125 0.742188 -0.492188 0.859375 -0.578125 C 0.984375 -0.660156 1.046875 -0.800781 1.046875 -1 L 1.046875 -5.703125 C 1.046875 -5.898438 0.984375 -6.035156 0.859375 -6.109375 C 0.742188 -6.191406 0.554688 -6.234375 0.296875 -6.234375 L 0.296875 -6.703125 L 3.15625 -6.703125 L 3.15625 -6.234375 C 2.882812 -6.234375 2.691406 -6.191406 2.578125 -6.109375 C 2.460938 -6.035156 2.40625 -5.898438 2.40625 -5.703125 L 2.40625 -1 C 2.40625 -0.800781 2.460938 -0.660156 2.578125 -0.578125 C 2.691406 -0.492188 2.882812 -0.453125 3.15625 -0.453125 L 3.15625 0 L 0.296875 0 Z M 0.296875 -0.453125 "/></g></g></g><g fill="#e4e2dd" fill-opacity="1"><g transform="translate(177.032225, 244.020219)"><g><path d="M 1.046875 -1 L 1.046875 -5.703125 C 1.046875 -5.898438 0.984375 -6.035156 0.859375 -6.109375 C 0.742188 -6.191406 0.554688 -6.234375 0.296875 -6.234375 L 0.296875 -6.703125 L 2.375 -6.703125 L 5.046875 -2.40625 L 5.046875 -5.703125 C 5.046875 -5.898438 4.992188 -6.035156 4.890625 -6.109375 C 4.785156 -6.191406 4.59375 -6.234375 4.3125 -6.234375 L 4.3125 -6.703125 L 6.34375 -6.703125 L 6.34375 -6.234375 C 6.0625 -6.234375 5.863281 -6.191406 5.75 -6.109375 C 5.644531 -6.035156 5.59375 -5.898438 5.59375 -5.703125 L 5.59375 0 L 5.03125 0 L 1.59375 -5.578125 L 1.59375 -1 C 1.59375 -0.789062 1.644531 -0.644531 1.75 -0.5625 C 1.851562 -0.488281 2.046875 -0.453125 2.328125 -0.453125 L 2.328125 0 L 0.296875 0 L 0.296875 -0.453125 C 0.578125 -0.453125 0.769531 -0.488281 0.875 -0.5625 C 0.988281 -0.644531 1.046875 -0.789062 1.046875 -1 Z M 1.046875 -1 "/></g></g></g><g fill="#e4e2dd" fill-opacity="1"><g transform="translate(183.615782, 244.020219)"><g><path d="M 3.09375 -6.828125 C 3.382812 -6.828125 3.597656 -6.8125 3.734375 -6.78125 C 3.867188 -6.757812 3.960938 -6.816406 4.015625 -6.953125 L 4.4375 -6.953125 L 4.953125 -4.953125 L 4.53125 -4.84375 C 4.382812 -5.226562 4.242188 -5.523438 4.109375 -5.734375 C 3.972656 -5.953125 3.820312 -6.101562 3.65625 -6.1875 C 3.5 -6.28125 3.304688 -6.328125 3.078125 -6.328125 C 2.742188 -6.328125 2.457031 -6.195312 2.21875 -5.9375 C 1.976562 -5.6875 1.859375 -5.378906 1.859375 -5.015625 L 1.859375 -1.5625 C 1.859375 -1.207031 1.941406 -0.914062 2.109375 -0.6875 C 2.285156 -0.46875 2.515625 -0.359375 2.796875 -0.359375 C 3.078125 -0.359375 3.300781 -0.46875 3.46875 -0.6875 C 3.644531 -0.90625 3.734375 -1.195312 3.734375 -1.5625 L 3.734375 -2.515625 C 3.734375 -2.953125 3.441406 -3.171875 2.859375 -3.171875 L 2.859375 -3.578125 L 5.3125 -3.578125 L 5.3125 -3.171875 C 5.0625 -3.171875 4.9375 -3.023438 4.9375 -2.734375 L 4.9375 0 L 4.65625 0 L 4.3125 -0.453125 C 3.925781 -0.0664062 3.414062 0.125 2.78125 0.125 C 1.257812 0.125 0.5 -0.757812 0.5 -2.53125 L 0.5 -4.171875 C 0.5 -4.992188 0.726562 -5.640625 1.1875 -6.109375 C 1.65625 -6.585938 2.289062 -6.828125 3.09375 -6.828125 Z M 3.09375 -6.828125 "/></g></g></g><g fill="#e4e2dd" fill-opacity="1"><g transform="translate(189.170275, 244.020219)"><g/></g></g><g fill="#e4e2dd" fill-opacity="1"><g transform="translate(191.550772, 244.020219)"><g><path d="M 0.296875 -0.453125 C 0.554688 -0.453125 0.742188 -0.492188 0.859375 -0.578125 C 0.984375 -0.660156 1.046875 -0.800781 1.046875 -1 L 1.046875 -5.703125 C 1.046875 -5.898438 0.984375 -6.035156 0.859375 -6.109375 C 0.742188 -6.191406 0.554688 -6.234375 0.296875 -6.234375 L 0.296875 -6.703125 L 3.96875 -6.703125 C 4.1875 -6.703125 4.335938 -6.71875 4.421875 -6.75 C 4.515625 -6.789062 4.566406 -6.851562 4.578125 -6.9375 L 4.984375 -6.9375 L 5.5 -4.921875 L 5.09375 -4.8125 C 4.9375 -5.207031 4.789062 -5.503906 4.65625 -5.703125 C 4.519531 -5.910156 4.347656 -6.046875 4.140625 -6.109375 C 3.929688 -6.179688 3.644531 -6.21875 3.28125 -6.21875 L 2.40625 -6.21875 L 2.40625 -3.3125 L 3.28125 -3.3125 C 3.601562 -3.3125 3.765625 -3.523438 3.765625 -3.953125 L 4.171875 -3.953125 L 4.171875 -2.078125 L 3.765625 -2.078125 C 3.765625 -2.578125 3.601562 -2.828125 3.28125 -2.828125 L 2.40625 -2.828125 L 2.40625 -1 C 2.40625 -0.800781 2.460938 -0.660156 2.578125 -0.578125 C 2.691406 -0.492188 2.882812 -0.453125 3.15625 -0.453125 L 3.15625 0 L 0.296875 0 Z M 0.296875 -0.453125 "/></g></g></g><g fill="#e4e2dd" fill-opacity="1"><g transform="translate(197.216855, 244.020219)"><g><path d="M 2.90625 -6.890625 C 3.664062 -6.890625 4.25 -6.65625 4.65625 -6.1875 C 5.070312 -5.726562 5.28125 -5.078125 5.28125 -4.234375 L 5.28125 -2.46875 C 5.28125 -0.695312 4.488281 0.1875 2.90625 0.1875 C 2.125 0.1875 1.523438 -0.0351562 1.109375 -0.484375 C 0.703125 -0.941406 0.5 -1.601562 0.5 -2.46875 L 0.5 -4.234375 C 0.5 -5.109375 0.703125 -5.769531 1.109375 -6.21875 C 1.515625 -6.664062 2.113281 -6.890625 2.90625 -6.890625 Z M 2.90625 -0.296875 C 3.195312 -0.296875 3.4375 -0.40625 3.625 -0.625 C 3.820312 -0.84375 3.921875 -1.125 3.921875 -1.46875 L 3.921875 -5.203125 C 3.921875 -5.554688 3.820312 -5.84375 3.625 -6.0625 C 3.4375 -6.289062 3.195312 -6.40625 2.90625 -6.40625 C 2.613281 -6.40625 2.367188 -6.289062 2.171875 -6.0625 C 1.984375 -5.832031 1.890625 -5.546875 1.890625 -5.203125 L 1.890625 -1.46875 C 1.890625 -1.113281 1.976562 -0.828125 2.15625 -0.609375 C 2.34375 -0.398438 2.59375 -0.296875 2.90625 -0.296875 Z M 2.90625 -0.296875 "/></g></g></g><g fill="#e4e2dd" fill-opacity="1"><g transform="translate(202.994519, 244.020219)"><g><path d="M 0.296875 -0.453125 C 0.554688 -0.453125 0.742188 -0.492188 0.859375 -0.578125 C 0.984375 -0.660156 1.046875 -0.800781 1.046875 -1 L 1.046875 -5.703125 C 1.046875 -5.898438 0.984375 -6.035156 0.859375 -6.109375 C 0.742188 -6.191406 0.554688 -6.234375 0.296875 -6.234375 L 0.296875 -6.703125 L 3.21875 -6.703125 C 3.976562 -6.703125 4.535156 -6.523438 4.890625 -6.171875 C 5.253906 -5.828125 5.4375 -5.285156 5.4375 -4.546875 C 5.4375 -4.191406 5.34375 -3.882812 5.15625 -3.625 C 4.976562 -3.363281 4.691406 -3.132812 4.296875 -2.9375 C 4.984375 -2.644531 5.328125 -2.128906 5.328125 -1.390625 C 5.328125 -1.128906 5.378906 -0.90625 5.484375 -0.71875 C 5.585938 -0.539062 5.71875 -0.453125 5.875 -0.453125 L 5.9375 -0.453125 L 5.9375 0 L 5.828125 0 C 5.222656 0 4.773438 -0.109375 4.484375 -0.328125 C 4.203125 -0.554688 4.0625 -0.910156 4.0625 -1.390625 C 4.0625 -1.742188 3.96875 -2.050781 3.78125 -2.3125 C 3.601562 -2.570312 3.394531 -2.703125 3.15625 -2.703125 L 2.90625 -2.703125 L 2.90625 -3.15625 L 3.21875 -3.15625 C 3.5 -3.15625 3.71875 -3.265625 3.875 -3.484375 C 4.039062 -3.710938 4.125 -4.007812 4.125 -4.375 L 4.125 -5.015625 C 4.125 -5.378906 4.039062 -5.671875 3.875 -5.890625 C 3.71875 -6.109375 3.5 -6.21875 3.21875 -6.21875 L 2.40625 -6.21875 L 2.40625 -1 C 2.40625 -0.800781 2.460938 -0.660156 2.578125 -0.578125 C 2.691406 -0.492188 2.882812 -0.453125 3.15625 -0.453125 L 3.15625 0 L 0.296875 0 Z M 0.296875 -0.453125 "/></g></g></g><g fill="#e4e2dd" fill-opacity="1"><g transform="translate(208.995354, 244.020219)"><g/></g></g><g fill="#e4e2dd" fill-opacity="1"><g transform="translate(211.375851, 244.020219)"><g><path d="M 0.296875 -0.453125 C 0.554688 -0.453125 0.742188 -0.492188 0.859375 -0.578125 C 0.984375 -0.660156 1.046875 -0.800781 1.046875 -1 L 1.046875 -5.703125 C 1.046875 -5.898438 0.984375 -6.035156 0.859375 -6.109375 C 0.742188 -6.191406 0.554688 -6.234375 0.296875 -6.234375 L 0.296875 -6.703125 L 3.96875 -6.703125 C 4.1875 -6.703125 4.335938 -6.71875 4.421875 -6.75 C 4.515625 -6.789062 4.566406 -6.851562 4.578125 -6.9375 L 4.984375 -6.9375 L 5.5 -4.921875 L 5.09375 -4.8125 C 4.9375 -5.207031 4.789062 -5.503906 4.65625 -5.703125 C 4.519531 -5.910156 4.347656 -6.046875 4.140625 -6.109375 C 3.929688 -6.179688 3.644531 -6.21875 3.28125 -6.21875 L 2.40625 -6.21875 L 2.40625 -3.3125 L 3.28125 -3.3125 C 3.601562 -3.3125 3.765625 -3.523438 3.765625 -3.953125 L 4.171875 -3.953125 L 4.171875 -2.078125 L 3.765625 -2.078125 C 3.765625 -2.578125 3.601562 -2.828125 3.28125 -2.828125 L 2.40625 -2.828125 L 2.40625 -1 C 2.40625 -0.800781 2.460938 -0.660156 2.578125 -0.578125 C 2.691406 -0.492188 2.882812 -0.453125 3.15625 -0.453125 L 3.15625 0 L 0.296875 0 Z M 0.296875 -0.453125 "/></g></g></g><g fill="#e4e2dd" fill-opacity="1"><g transform="translate(217.041935, 244.020219)"><g><path d="M 5.203125 -2.53125 C 5.203125 -0.757812 4.515625 0.125 3.140625 0.125 C 2.429688 0.125 1.867188 -0.109375 1.453125 -0.578125 C 1.046875 -1.054688 0.84375 -1.707031 0.84375 -2.53125 L 0.84375 -5.703125 C 0.84375 -5.898438 0.785156 -6.035156 0.671875 -6.109375 C 0.554688 -6.191406 0.363281 -6.234375 0.09375 -6.234375 L 0.09375 -6.703125 L 2.953125 -6.703125 L 2.953125 -6.234375 C 2.691406 -6.234375 2.5 -6.191406 2.375 -6.109375 C 2.257812 -6.035156 2.203125 -5.898438 2.203125 -5.703125 L 2.203125 -1.6875 C 2.203125 -1.300781 2.3125 -0.988281 2.53125 -0.75 C 2.75 -0.507812 3.039062 -0.390625 3.40625 -0.390625 C 3.78125 -0.390625 4.082031 -0.570312 4.3125 -0.9375 C 4.550781 -1.300781 4.671875 -1.769531 4.671875 -2.34375 L 4.671875 -5.703125 C 4.671875 -5.898438 4.617188 -6.035156 4.515625 -6.109375 C 4.410156 -6.191406 4.21875 -6.234375 3.9375 -6.234375 L 3.9375 -6.703125 L 5.953125 -6.703125 L 5.953125 -6.234375 C 5.671875 -6.234375 5.472656 -6.191406 5.359375 -6.109375 C 5.253906 -6.035156 5.203125 -5.898438 5.203125 -5.703125 Z M 5.203125 -2.53125 "/></g></g></g><g fill="#e4e2dd" fill-opacity="1"><g transform="translate(223.092369, 244.020219)"><g><path d="M 1.046875 -1 L 1.046875 -5.703125 C 1.046875 -5.898438 0.984375 -6.035156 0.859375 -6.109375 C 0.742188 -6.191406 0.554688 -6.234375 0.296875 -6.234375 L 0.296875 -6.703125 L 2.375 -6.703125 L 5.046875 -2.40625 L 5.046875 -5.703125 C 5.046875 -5.898438 4.992188 -6.035156 4.890625 -6.109375 C 4.785156 -6.191406 4.59375 -6.234375 4.3125 -6.234375 L 4.3125 -6.703125 L 6.34375 -6.703125 L 6.34375 -6.234375 C 6.0625 -6.234375 5.863281 -6.191406 5.75 -6.109375 C 5.644531 -6.035156 5.59375 -5.898438 5.59375 -5.703125 L 5.59375 0 L 5.03125 0 L 1.59375 -5.578125 L 1.59375 -1 C 1.59375 -0.789062 1.644531 -0.644531 1.75 -0.5625 C 1.851562 -0.488281 2.046875 -0.453125 2.328125 -0.453125 L 2.328125 0 L 0.296875 0 L 0.296875 -0.453125 C 0.578125 -0.453125 0.769531 -0.488281 0.875 -0.5625 C 0.988281 -0.644531 1.046875 -0.789062 1.046875 -1 Z M 1.046875 -1 "/></g></g></g></svg>